# xmcd
#
# Track frame offsets: 
#        150
#        16539
#        34629
#        58016
#        73700
#        90142
#        106128
#        122034
#
# Disc length: 1849 seconds
#
# Revision: 0
# Processed by: cddbd v1.5.2PL0 Copyright (c) Steve Scherf et al.
# Submitted via: ExactAudioCopyFreeDBPlugin 1.0
#
DISCID=54073708
DTITLE=Bradford Lee Folk and the Bluegrass Playboys - Somewhere Far Aw
DTITLE=ay
DYEAR=2014
DGENRE=Bluegrass
TTITLE0=Foolish Game of Love
TTITLE1=Trains Don't Lie
TTITLE2=The Wood Swan
TTITLE3=The Piper
TTITLE4=Denver
TTITLE5=Somehwere Far Away
TTITLE6=Never Looking Back
TTITLE7=Soil and Clay
EXTD=
EXTT0=
EXTT1=
EXTT2=
EXTT3=
EXTT4=
EXTT5=
EXTT6=
EXTT7=
PLAYORDER=
